# xmcd CD database file
#
# Track frame offsets:
#	150
#	13839
#	36169
#	58166
#	77469
#	102421
#	117451
#	139700
#
# Disc length: 2033 seconds
#
# Revision: 0
# Processed by: cddbd v1.5.2PL0 Copyright (c) Steve Scherf et al.
# Submitted via: CDex 1.70beta2
#
DISCID=6807ef08
DTITLE=Sergio Bruni - Levate 'a Maschera Pulicenella
DYEAR=1976
DGENRE=Napoletana
TTITLE0='a Libberta' (S.Palomba-S.Bruni)
TTITLE1=Carmela (S.Palomba-S.Bruni)
TTITLE2=Chiappariello (S.Palomba-S.Bruni)
TTITLE3='o Guardamachine (S.Palomba-S.Bruni)
TTITLE4=Notte Napulitana (S.Palomba-S.Bruni)
TTITLE5=Belzebbu' (S.Palomba-S.Bruni)
TTITLE6=Masaniello (S.Palomba-S.Bruni)
TTITLE7=Napule Nun T''o Scurda' (S.Palomba-S.Bruni
EXTD=YEAR: 1976
EXTT0=
EXTT1=
EXTT2=
EXTT3=
EXTT4=
EXTT5=
EXTT6=
EXTT7=
PLAYORDER=
